<?xml version="1.0" encoding="UTF-8"?>
<svg viewBox="0 0 315.6217 321.95026" xmlns="http://www.w3.org/2000/svg">
 <defs>
  <radialGradient id="a" cx="261.27" cy="395.97" r="157.81" gradientTransform="matrix(.4128 1.8355 -2.9535 .66413 1308.8 -332.31)" gradientUnits="userSpaceOnUse">
   <stop stop-color="#0d1a2f" offset="0"/>
   <stop stop-color="#1d3c6a" offset="1"/>
  </radialGradient>
 </defs>
 <g transform="translate(-170.19 -311.59)">
  <path d="m262.24 633.16c-9.109-1.5129-22.184-5.9778-32.5-11.098-25.137-12.478-37.182-22.708-44.602-37.883-4.4209-9.0416-4.6462-11.477-4.4774-48.384 0.21052-46.016-1.1016-65.914-7.7958-118.21-2.7043-21.128-2.8964-23.749-2.5399-34.643 0.63429-19.384 3.5684-31.459 8.8908-36.588 6.3943-6.1625 21.076-12.056 36.953-14.835 7.1869-1.2577 23.064-1.6631 32.143-0.82077 8.2126 0.76194 31.454 4.8631 45 7.9406 3.5357 0.80329 10.125 1.6599 14.643 1.9036 7.5887 0.40934 8.8942 0.27607 17.143-1.75 4.9107-1.2062 15.196-4.2725 22.857-6.814s20.679-6.7191 28.929-9.2835c34.182-10.625 41.302-12.157 49.053-10.556 7.1906 1.4852 17.355 7.0905 24.079 13.279 15.187 13.978 24.781 43.172 26.414 80.382 0.56885 12.958-0.0205 24.579-2.4452 48.214-2.7467 26.774-3.1203 50.942-1.0764 69.643 2.0283 18.558 3.7671 29.083 7.1734 43.419 3.7982 15.986 5.7315 25.539 5.7315 28.321 0 1.4598-0.58569 2.8453-1.6071 3.8018-6.0504 5.6658-36.417 12.238-66.607 14.416-24.247 1.7493-30.51 2.3081-41.071 3.6645-15.556 1.9979-42.052 6.3819-64.286 10.637-10.411 1.9923-22.561 4.099-27.001 4.6815-7.4898 0.98274-18.818 1.2625-22.999 0.56804z" fill="url(#a)"/>
  <path d="m280.36 443.08-4.8532-2.3538-2.5848 4.7342 0.73892-5.343-5.3012-0.99534 5.3099-0.94834-0.69154-5.3494 2.5428 4.7569 4.8738-2.3107-3.7384 3.8883 3.7038 3.9212z" fill="#162d50"/>
  <path d="m368.57 520.22-1.5674-8.5569-8.6225 1.1535 7.6538-4.1349-3.7616-7.844 6.2977 6.0014 6.2977-6.0014-3.7616 7.844 7.6538 4.1349-8.6225-1.1535-1.5674 8.5569z" fill="#162d50"/>
  <path d="m368.57 390.22-5.6086-4.8687-5.1331 5.3677 2.8972-6.8386-6.6912-3.2232 7.3992 0.64216 0.99772-7.3597 1.6758 7.2355 7.3078-1.3254-6.3636 3.8296 3.5188 6.5406z" fill="#162d50"/>
  <path d="m299.29 393.79-6.3316-2.3778-2.68 6.2097 0.30489-6.7565-6.734-0.62988 6.52-1.7979-1.4819-6.599 3.7247 5.6453 5.8181-3.4485-4.218 5.2869 5.0777 4.4677z" fill="#162d50"/>
  <path d="m208.57 411.65 4.0412-3.6883-3.4894-4.2141 4.7566 2.7037 2.9296-4.6208-1.1015 5.3592 5.3 1.3583-5.4373 0.6085 0.34596 5.4603-2.2589-4.9832-5.0862 2.0164z" fill="#162d50"/>
  <path d="m245 583.79-4.6682 0.26549 0.0404 4.6756-1.695-4.3577-4.4342 1.4832 3.6206-2.9587-2.7809-3.7589 3.9327 2.5291 2.7156-3.8064-1.19 4.5218 4.4592 1.4064z" fill="#00112b"/>
  <path d="m454.29 581.65 0.20048-5.3432-5.3273-0.45754 5.1436-1.4604-1.2111-5.208 2.9784 4.4405 4.5788-2.7612-3.3028 4.2049 4.0409 3.5015-5.0197-1.8418-2.0814 4.9252z" fill="#00112b"/>
  <path d="m425.71 417.36 4.1937-6.0746-5.8656-4.4814 7.0732 2.1113 2.4495-6.9634 0.17777 7.3795 7.3795 0.17778-6.9634 2.4495 2.1113 7.0732-4.4814-5.8656-6.0746 4.1937z" fill="#00112b"/>
  <path d="m355 568.08-7.7295-0.35297-0.72476 7.7035-2.0528-7.4602-7.5505 1.6912 6.4608-4.2577-3.9417-6.6583 6.0458 4.8288 5.1144-5.8063-2.7242 7.2421 7.1025 3.0698z" fill="#00112b"/>
  <path d="m277.86 558.08 1.2369-6.1226-6.0559-1.5303 6.2052-0.71561-0.41598-6.2324 2.5981 5.6803 5.7988-2.3216-4.5995 4.2262 3.9999 4.7976-5.4407-3.0684-3.3268 5.2866z" fill="#025"/>
  <path d="m317.14 512.36-6.2836-5.3346-5.631 6.0194 3.1318-7.6245-7.4649-3.4953 8.2192 0.62241 1.0175-8.1796 1.9479 8.0092 8.0937-1.56-7.0153 4.3276 3.9847 7.2155z" fill="#025"/>
  <path d="m232.14 499.51-0.57897-6.3796-6.4001 0.2711 5.8884-2.522-2.2356-6.003 4.2182 4.8209 5.0184-3.9812-3.2814 5.5015 5.3371 3.5425-6.2462-1.4208-1.7199 6.1706z" fill="#025"/>
  <path transform="translate(3.5714 37.143)" d="m356.43 460.93 2.1688-7.4725-7.3594-2.5262 7.777-0.24643 0.12834-7.7798 2.6376 7.3202 7.4387-2.282-6.1469 4.7706 4.469 6.3695-6.4366-4.3718-4.6767 6.2186z" fill="#d5e5ff"/>
  <path transform="translate(-17.143 -15)" d="m250.71 465.22-5.1992-9.0709-9.3107 4.7563 7.0203-7.7478-7.4007-7.3852 9.538 4.2825 4.7368-9.3207-1.1255 10.394 10.328 1.6248-10.234 2.1416 1.6464 10.325z" fill="#d5e5ff"/>
  <path transform="translate(-70,-.71429)" d="m396.43 545.93-2.6997-10.124-10.208 0.74687 8.7947-5.6962-3.8646-9.4771 8.1351 6.6041 7.8191-6.6041-3.767 9.7777 8.6971 5.3956-10.463-0.5611-2.444 9.9387z" fill="#d5e5ff"/>
  <path transform="translate(1.1055e-7 -62.143)" d="m285.71 538.79-4.4001-6.1849-6.8989 3.1653 4.5225-6.096-5.1422-5.5831 7.1952 2.4174 3.7208-6.6158-0.0756 7.59 7.4418 1.4943-7.2419 2.2735 0.87847 7.5394z" fill="#d5e5ff"/>
  <path transform="translate(-2.8571 70.714)" d="m400.71 383.08-7.5533-3.1254-4.4833 6.8352 0.63828-8.1494-7.8861-2.1517 7.9478-1.9113-0.39057-8.165 4.2737 6.9682 7.6447-2.8946-5.3065 6.2179 5.1153 6.3761z" fill="#d5e5ff"/>
  <path transform="translate(24.286 -29.286)" d="m395.71 438.79-1.6254-6.3343-6.5265 0.41159 5.522-3.5032-2.4082-6.0799 5.0382 4.1692 5.0382-4.1692-2.4082 6.0799 5.522 3.5032-6.5266-0.41159-1.6254 6.3343z" fill="#d5e5ff"/>
  <path d="m258.57 541.65-3.8972-5.1822-5.3638 3.6432 3.7242-5.3079-5.1224-3.9755 6.1989 1.9017 2.198-6.1002 0.10695 6.4832 6.4808 0.20536-6.1328 2.1051 1.8074 6.2271z" fill="#00112b"/>
  <path d="m412.86 526.65-8e-3 -6.4841-6.477-0.30373 6.1641-2.0118-1.7126-6.2538 3.8181 5.2407 5.4185-3.5613-3.8044 5.2507 5.0614 4.0528-6.1694-1.9956-2.2904 6.0661z" fill="#00112b"/>
  <path d="m230.71 361.65-3.7928-4.6117-4.789 3.5663 3.214-5.0322-4.8716-3.4525 5.7791 1.5016 1.7782-5.7001 0.35772 5.9603 5.9706-0.0703-5.558 2.182 1.9119 5.6566z" fill="#00112b"/>
  <path d="m418.57 343.79 2.6348-8.1475-8.0111-3.0241 8.5629-0.0118 0.4005-8.5535 2.6574 8.1401 8.2587-2.2623-6.9206 5.0427 4.7036 7.1554-6.9345-5.0236-5.3517 6.6846z" fill="#00112b"/>
 </g>
</svg>
